<svg id="logo" xmlns="http://www.w3.org/2000/svg" viewBox="0 0 209.12012 76.34589"><path d="M15.36206 57.30859H3.67522a3.5447 3.5447 0 0 0-2.60437 1.07086A3.54529 3.54529 0 0 0 0 60.98383v3.91327a3.5447 3.5447 0 0 0 1.07086 2.60437 3.5447 3.5447 0 0 0 2.60436 1.07086h11.68684c.10577 0 .15863.062.15863.18506v3.91327q0 .1853-.15863.18506H3.67522a.16347.16347 0 0 1-.18506-.18506v-1.45429H0v1.45428a3.5447 3.5447 0 0 0 1.07086 2.60438 3.5447 3.5447 0 0 0 2.60436 1.07086h11.68684a3.67863 3.67863 0 0 0 3.67523-3.67523v-3.91327a3.67863 3.67863 0 0 0-3.67523-3.67523H3.67522a.16347.16347 0 0 1-.18506-.18506v-3.91327a.16363.16363 0 0 1 .18506-.18506h11.68684c.10577 0 .15863.062.15863.18506v1.45428h3.5166v-1.45428a3.67863 3.67863 0 0 0-3.67523-3.67523zm5.50208 3.49017h7.77356v15.54713h3.5166V60.79877h7.74712v-3.49018H20.86413zm36.23925-3.46373H41.76782v19.01086h3.49011v-6.53086h6.24005l5.49963 6.53082h3.8075v-.899l-4.73289-5.63182h1.03119a3.70153 3.70153 0 0 0 3.70172-3.67529v-5.12942a3.70153 3.70153 0 0 0-3.70174-3.67529zm.18512 8.80475a.1637.1637 0 0 1-.18512.18512H45.44305a.16353.16353 0 0 1-.18512-.18512v-5.12946a.16367.16367 0 0 1 .18512-.18512h11.66034a.16384.16384 0 0 1 .18512.18512zm5.84326 10.20612h17.50372v-3.49019H66.64837v-4.28338H77.9121v-3.49018H66.64837v-4.28338h13.98712v-3.49018H63.13177zm35.03638-19.03731H86.48132a3.65632 3.65632 0 0 0-3.67523 3.67523v3.91327a3.65632 3.65632 0 0 0 3.67523 3.67524h11.68683c.10577 0 .15863.062.15863.18506v3.91327q0 .1853-.15863.18506H86.48132a.16347.16347 0 0 1-.18506-.18506v-1.45429h-3.49017v1.45428a3.65632 3.65632 0 0 0 3.67523 3.67523h11.68683a3.67863 3.67863 0 0 0 3.67523-3.67523v-3.91326a3.67863 3.67863 0 0 0-3.67523-3.67523H86.48132a.16347.16347 0 0 1-.18506-.18506v-3.91327a.16363.16363 0 0 1 .18506-.18506h11.68683c.10577 0 .15863.062.15863.18506v1.45428h3.5166v-1.45428a3.67863 3.67863 0 0 0-3.67523-3.67523zm24.94916 5.12952v-1.45428a3.67863 3.67863 0 0 0-3.67523-3.67523h-11.68677a3.65632 3.65632 0 0 0-3.67529 3.67523v3.91327a3.65632 3.65632 0 0 0 3.67529 3.67523h11.68677c.10577 0 .15863.062.15863.18506v3.91327q0 .1853-.15863.18506h-11.68677a.16348.16348 0 0 1-.18512-.18506v-1.45429h-3.49017v1.45428a3.65632 3.65632 0 0 0 3.67529 3.67523h11.68677a3.67863 3.67863 0 0 0 3.67523-3.67523v-3.91326a3.67863 3.67863 0 0 0-3.67523-3.67523h-11.68677a.16348.16348 0 0 1-.18512-.18506v-3.91327a.16365.16365 0 0 1 .18512-.18506h11.68677c.10577 0 .15863.062.15863.18506v1.45428z" fill="#fff" fill-rule="evenodd"/><path d="M124.87799 59.45032h8.46106v16.89557h2.14172V59.45032h8.43457v-2.14173h-19.03735zm38.27523 6.29284h-15.2034v-8.43457h-2.14166v19.0373h2.14166v-8.43457h15.2034v8.43457h2.16809v-19.0373h-2.16809zm4.598 10.60272h17.37158v-2.14166h-15.22986v-6.2929h12.242v-2.16816h-12.242v-6.29284h15.22986v-2.14173h-17.37158zm38.434-19.03729l-7.90576 9.4129-7.90576-9.4129h-2.93498v19.0373h2.14172V59.74115l8.699 10.33832 8.699-10.33832v16.60474h2.14172v-19.0373z" fill="#06f442" fill-rule="evenodd"/><path fill="#fff" fill-rule="evenodd" d="M104.536 11.94L70.282 0l34.254 38.4L138.684 0l-34.148 11.94z"/></svg>